<?xml version="1.0" standalone="no"?>
<!DOCTYPE svg PUBLIC "-//W3C//DTD SVG 20010904//EN"
 "http://www.w3.org/TR/2001/REC-SVG-20010904/DTD/svg10.dtd">
<svg version="1.0" xmlns="http://www.w3.org/2000/svg"
 width="1352.677673pt" height="1357.887888pt" viewBox="0 0 1352.677673 1357.887888"
 preserveAspectRatio="xMidYMid meet">

<g transform="translate(-324.059038,1683.883693) scale(0.100000,-0.100000)"
fill="#000000" stroke="none">
<path d="M13250 16825 c-235 -31 -399 -89 -650 -231 -265 -150 -516 -428 -684
-756 -145 -282 -223 -529 -267 -848 -18 -127 -15 -532 5 -655 20 -119 62 -322
81 -385 71 -236 147 -428 236 -597 140 -263 212 -369 472 -686 184 -225 239
-303 293 -412 123 -253 53 -512 -166 -613 -46 -22 -69 -26 -146 -25 -99 0
-135 6 -419 63 -256 52 -318 60 -518 70 -277 13 -564 -4 -852 -51 -213 -35
-361 -64 -475 -93 -30 -8 -102 -26 -160 -41 -133 -33 -347 -97 -470 -140 -412
-144 -659 -241 -895 -350 -42 -19 -79 -35 -81 -35 -8 0 -734 -362 -839 -418
-55 -30 -147 -79 -205 -109 -58 -31 -134 -71 -169 -90 -212 -115 -499 -250
-651 -305 -228 -84 -375 -108 -665 -108 -332 0 -552 35 -930 146 -184 54 -358
109 -480 151 -310 107 -356 123 -460 161 -60 22 -162 60 -225 85 -249 99 -360
128 -400 107 -55 -29 -8 -101 247 -376 267 -288 656 -631 1046 -923 54 -40 96
-78 94 -85 -4 -13 -194 -20 -957 -36 -541 -11 -615 -16 -677 -46 -80 -39 -53
-76 127 -170 58 -31 177 -98 265 -149 332 -194 795 -438 1030 -542 39 -18 101
-46 139 -63 39 -17 140 -61 225 -97 86 -35 173 -73 194 -84 21 -10 44 -19 53
-19 8 0 60 -47 117 -104 234 -237 727 -604 1097 -816 198 -113 492 -255 715
-345 380 -153 898 -278 1195 -288 l65 -2 -2 -45 c0 -25 -4 -119 -9 -211 -6
-145 -5 -172 11 -220 24 -71 62 -131 146 -232 45 -53 88 -120 123 -192 604
-1216 646 -1308 646 -1400 0 -61 -34 -187 -62 -234 -29 -46 -66 -59 -188 -65
-197 -11 -278 -37 -367 -119 -49 -45 -77 -91 -69 -113 8 -22 60 -17 118 11 64
31 88 31 132 1 81 -55 319 -62 451 -14 17 6 54 22 83 35 29 12 55 23 59 23 3
0 48 -40 100 -90 125 -120 239 -176 503 -248 314 -86 655 -119 1085 -107 384
11 392 11 461 -13 84 -30 122 -29 130 3 9 35 -12 79 -54 116 -45 40 -210 120
-307 151 -106 33 -102 38 45 58 47 6 110 15 140 20 258 46 369 52 435 25 28
-12 40 -13 51 -4 36 30 1 92 -83 148 -87 58 -191 86 -413 111 -157 18 -159 19
-114 72 16 20 24 40 22 57 -3 24 -7 26 -57 29 -30 2 -88 -4 -130 -12 -208 -41
-305 -49 -564 -43 -361 7 -562 35 -800 109 -115 36 -149 57 -199 123 -34 44
-167 303 -274 530 -20 44 -77 163 -127 265 -49 102 -100 210 -114 240 -14 30
-40 87 -58 125 -33 73 -98 234 -110 272 -5 18 8 37 69 103 42 44 95 106 117
137 50 66 112 198 129 271 7 28 17 55 24 59 6 4 38 6 72 4 112 -5 333 76 484
178 25 17 48 31 52 31 4 0 21 -28 37 -63 17 -35 50 -85 73 -112 54 -61 148
-131 189 -140 26 -6 35 -16 52 -59 39 -94 188 -379 276 -526 83 -138 150 -259
248 -449 35 -68 43 -95 43 -137 0 -77 -63 -217 -121 -271 -22 -19 -37 -22
-169 -25 -132 -3 -150 -5 -202 -30 -79 -37 -158 -112 -158 -149 0 -36 11 -36
125 -9 l83 20 53 -26 c75 -38 226 -57 339 -43 87 11 205 43 215 60 8 11 45 12
45 0 0 -15 112 -87 218 -140 313 -158 717 -245 1252 -271 113 -6 259 -15 324
-20 106 -9 121 -8 138 6 38 35 17 68 -66 104 -26 12 -46 24 -43 26 3 3 92 7
198 9 186 3 333 19 479 51 207 46 209 46 295 24 71 -18 81 -19 94 -5 14 14 13
19 -4 52 -50 93 -192 152 -495 207 -52 10 -115 21 -140 26 -25 5 -70 12 -100
15 -87 9 -107 36 -37 50 94 19 107 25 107 49 0 16 -13 32 -41 52 -53 37 -126
42 -309 21 -383 -44 -869 -22 -1270 57 -209 42 -291 74 -352 139 -56 60 -158
218 -219 337 -29 58 -78 150 -109 205 -32 55 -78 141 -105 190 -100 188 -131
243 -193 344 l-65 105 27 105 c14 59 26 125 26 147 0 23 6 46 13 51 6 6 84 13
172 16 88 4 196 11 240 17 44 6 132 18 195 26 344 46 852 170 1180 287 380
136 791 328 1070 500 381 235 557 367 838 627 232 214 378 380 571 650 182
254 280 433 386 700 165 418 227 708 228 1065 0 401 -87 768 -275 1155 -230
472 -561 825 -1138 1215 -295 199 -409 296 -542 460 -214 263 -355 651 -321
884 33 224 144 363 355 440 54 20 86 28 328 76 222 45 331 74 400 106 71 33
130 74 130 91 0 5 -22 35 -50 65 -55 60 -57 65 -36 82 11 10 30 -1 97 -54 92
-75 126 -92 283 -140 61 -18 149 -45 196 -59 126 -39 289 -81 430 -110 362
-75 618 -75 923 1 l108 27 55 -19 c41 -14 60 -16 72 -8 54 33 31 140 -48 226
-57 63 -100 83 -310 147 -209 65 -349 114 -535 188 -78 31 -301 139 -345 168
-86 55 -205 152 -266 215 -81 86 -226 281 -298 404 -72 122 -167 267 -232 357
-211 287 -515 473 -929 567 -66 15 -261 31 -355 30 -41 -1 -118 -7 -170 -14z
m689 -644 c41 -21 136 -120 154 -159 10 -22 8 -28 -23 -54 -50 -41 -187 -108
-223 -108 -17 0 -55 14 -85 31 -68 38 -182 127 -182 142 0 20 108 114 162 141
65 32 141 35 197 7z m1158 -634 c25 -34 56 -84 70 -112 29 -57 60 -95 80 -95
16 0 190 -82 217 -103 10 -8 15 -17 10 -20 -10 -6 -258 27 -287 38 -12 5 -24
-1 -38 -19 -31 -40 -49 -19 -49 58 -1 92 -23 179 -64 247 -66 112 -20 116 61
6z m-2862 -4747 c175 -25 403 -104 444 -154 21 -25 -23 -98 -118 -198 -153
-161 -322 -264 -617 -375 -301 -114 -465 -155 -854 -215 -115 -18 -579 -17
-677 1 -48 8 -73 17 -73 26 0 8 34 38 74 67 41 29 75 58 75 64 1 8 -57 14
-181 18 -271 11 -350 21 -471 61 -185 60 -269 108 -370 207 -49 48 -87 93 -85
100 7 20 74 21 152 4 39 -9 98 -20 130 -26 79 -13 374 -13 473 1 156 21 376
82 698 192 108 37 247 78 375 111 14 4 50 14 80 22 30 8 73 19 95 24 22 4 95
20 162 34 66 14 152 30 190 35 95 12 414 13 498 1z m717 -382 c145 -231 211
-475 188 -694 -44 -400 -301 -775 -765 -1116 -278 -204 -597 -358 -989 -479
-324 -100 -585 -151 -1016 -201 -157 -18 -849 -18 -980 0 -52 7 -149 20 -215
29 -299 38 -673 131 -831 205 -65 30 -141 80 -161 106 -35 44 5 114 122 212
36 30 61 58 57 62 -5 5 -73 13 -151 18 -78 6 -150 14 -159 19 -9 4 -35 11 -57
14 -22 4 -69 18 -105 33 -131 53 -166 105 -92 139 95 45 197 97 209 107 23 19
5 25 -104 31 -144 9 -250 30 -537 107 -163 44 -503 166 -654 236 -29 13 -54
24 -57 24 -8 0 -165 74 -295 140 -321 161 -620 359 -620 410 0 25 19 27 160
17 189 -13 1969 11 2145 29 43 4 65 11 65 20 0 7 -48 48 -107 91 -60 44 -133
102 -164 130 -57 54 -106 133 -94 153 8 12 64 6 94 -10 24 -14 131 -60 137
-60 3 0 20 -6 37 -14 91 -40 317 -105 446 -127 31 -6 94 -17 141 -25 208 -36
701 -73 971 -74 69 0 97 -5 140 -24 66 -29 236 -60 289 -53 51 7 77 -11 61
-41 -16 -30 -14 -37 15 -72 35 -41 109 -75 229 -104 187 -46 662 -48 940 -5
383 59 828 193 1055 317 238 130 364 233 525 430 33 40 67 72 77 72 10 0 31
-21 50 -52z"/>
</g>
</svg>
